<?xml version="1.0" encoding="utf-8"?>
<!-- Generator: Adobe Illustrator 21.0.1, SVG Export Plug-In . SVG Version: 6.00 Build 0)  -->
<svg version="1.1" id="Слой_1" xmlns="http://www.w3.org/2000/svg" xmlns:xlink="http://www.w3.org/1999/xlink" x="0px" y="0px"
	 width="346.1px" height="76.1px" viewBox="0 0 346.1 76.1" enable-background="new 0 0 346.1 76.1" xml:space="preserve">
<g>
	<linearGradient id="SVGID_1_" gradientUnits="userSpaceOnUse" x1="243.1153" y1="-7.8134" x2="148.0486" y2="87.2533">
		<stop  offset="0" style="stop-color:#2F4998"/>
		<stop  offset="0.1444" style="stop-color:#4470B5"/>
		<stop  offset="0.2838" style="stop-color:#558ECB"/>
		<stop  offset="0.4028" style="stop-color:#5FA0D9"/>
		<stop  offset="0.4872" style="stop-color:#63A7DE"/>
		<stop  offset="0.6386" style="stop-color:#61A4DC"/>
		<stop  offset="0.753" style="stop-color:#5C9AD4"/>
		<stop  offset="0.8552" style="stop-color:#528AC8"/>
		<stop  offset="0.9498" style="stop-color:#4573B6"/>
		<stop  offset="1" style="stop-color:#3C64AA"/>
	</linearGradient>
	<path fill="url(#SVGID_1_)" d="M235.1,8.8c0-4.9-3.9-8.8-8.7-8.8c-2.4,0-4.6,1-6.2,2.6l0,0l-57.8,58.2l0,0
		c-1.7,1.6-2.8,3.9-2.8,6.4c0,4.9,3.9,8.8,8.7,8.8c2.4,0,4.5-1,6.1-2.5l0,0l0,0c0,0,0,0,0.1-0.1l58-58.3
		C234,13.5,235.1,11.3,235.1,8.8z"/>
	<linearGradient id="SVGID_2_" gradientUnits="userSpaceOnUse" x1="250.3257" y1="-0.5218" x2="155.4272" y2="94.3767">
		<stop  offset="0" style="stop-color:#2F4998"/>
		<stop  offset="0.1444" style="stop-color:#4470B5"/>
		<stop  offset="0.2838" style="stop-color:#558ECB"/>
		<stop  offset="0.4028" style="stop-color:#5FA0D9"/>
		<stop  offset="0.4872" style="stop-color:#63A7DE"/>
		<stop  offset="0.6386" style="stop-color:#61A4DC"/>
		<stop  offset="0.753" style="stop-color:#5C9AD4"/>
		<stop  offset="0.8552" style="stop-color:#528AC8"/>
		<stop  offset="0.9498" style="stop-color:#4573B6"/>
		<stop  offset="1" style="stop-color:#3C64AA"/>
	</linearGradient>
	<path fill="url(#SVGID_2_)" d="M261.8,15c3.4-3.4,3.4-9,0-12.4c-1.7-1.7-4-2.6-6.3-2.6l0,0l-28.8,0v0c-2.3-0.1-4.7,0.8-6.5,2.6
		c-3.4,3.4-3.4,9,0,12.4c1.7,1.7,3.9,2.6,6.1,2.6l0,0h0c0,0,0.1,0,0.1,0l29,0C257.8,17.6,260.1,16.8,261.8,15z"/>
</g>
<path fill="#70C1F0" d="M96.2,43.5c-1.7-1.7-4-2.6-6.3-2.6l0,0L53,41L15,2.6l0,0C13.4,1,11.2,0,8.7,0C3.9,0,0,3.9,0,8.8
	c0,2.5,1,4.7,2.7,6.3L43,55.7c0.1,0.1,0.1,0.1,0.2,0.2c1.7,1.7,3.9,2.6,6.1,2.6l0,0h0c0,0,0.1,0,0.1,0l40.4,0c2.3,0,4.6-0.8,6.3-2.6
	C99.6,52.5,99.6,47,96.2,43.5z"/>
<g>
	<linearGradient id="SVGID_3_" gradientUnits="userSpaceOnUse" x1="92.0105" y1="8.0821" x2="41.1545" y2="56.4487">
		<stop  offset="9.000000e-02" style="stop-color:#2F4998"/>
		<stop  offset="0.1825" style="stop-color:#3F66AE"/>
		<stop  offset="0.312" style="stop-color:#538AC8"/>
		<stop  offset="0.4183" style="stop-color:#5F9FD8"/>
		<stop  offset="0.4872" style="stop-color:#63A7DE"/>
		<stop  offset="0.5992" style="stop-color:#61A3DB"/>
		<stop  offset="0.7032" style="stop-color:#5B98D3"/>
		<stop  offset="0.8041" style="stop-color:#5085C5"/>
		<stop  offset="0.9024" style="stop-color:#426BB1"/>
		<stop  offset="0.9991" style="stop-color:#2F4998"/>
		<stop  offset="1" style="stop-color:#2F4998"/>
	</linearGradient>
	<path fill="url(#SVGID_3_)" d="M98.8,8.8c0-4.9-3.9-8.8-8.7-8.8c-2.4,0-4.6,1-6.2,2.6l0,0L43.5,43.3l0,0c-1.7,1.6-2.8,3.9-2.8,6.4
		c0,4.9,3.9,8.8,8.7,8.8c2.4,0,4.5-1,6.1-2.5l0,0l0,0c0,0,0,0,0.1-0.1l40.5-40.8C97.8,13.5,98.8,11.3,98.8,8.8z"/>
	<linearGradient id="SVGID_4_" gradientUnits="userSpaceOnUse" x1="86.4512" y1="2.7731" x2="35.9104" y2="50.84">
		<stop  offset="9.000000e-02" style="stop-color:#2F4998"/>
		<stop  offset="0.1825" style="stop-color:#3F66AE"/>
		<stop  offset="0.312" style="stop-color:#538AC8"/>
		<stop  offset="0.4183" style="stop-color:#5F9FD8"/>
		<stop  offset="0.4872" style="stop-color:#63A7DE"/>
		<stop  offset="0.5992" style="stop-color:#61A3DB"/>
		<stop  offset="0.7032" style="stop-color:#5B98D3"/>
		<stop  offset="0.8041" style="stop-color:#5085C5"/>
		<stop  offset="0.9024" style="stop-color:#426BB1"/>
		<stop  offset="0.9991" style="stop-color:#2F4998"/>
		<stop  offset="1" style="stop-color:#2F4998"/>
	</linearGradient>
	<path fill="url(#SVGID_4_)" d="M30.9,43.5c3.4,3.4,8.9,3.4,12.3,0l6.2,6.2l-6.2,6.2L30.9,43.5z"/>
</g>
<g>
	<g>
		<path fill="#70C1F0" d="M327.2,58.5h-71.6c-4.8,0-8.7-3.9-8.7-8.8s3.9-8.8,8.7-8.8h71.6c0.8,0,1.4-0.6,1.4-1.4
			c0-0.8-0.6-1.4-1.4-1.4H295c-10.4,0-18.9-8.5-18.9-19c0-10.5,8.5-19,18.9-19h25c4.8,0,8.7,3.9,8.7,8.8s-3.9,8.8-8.7,8.8h-25
			c-0.8,0-1.4,0.6-1.4,1.4c0,0.8,0.6,1.4,1.4,1.4h32.3c10.4,0,18.9,8.5,18.9,19C346.1,50,337.6,58.5,327.2,58.5z"/>
	</g>
</g>
<linearGradient id="SVGID_5_" gradientUnits="userSpaceOnUse" x1="289.1418" y1="25.0186" x2="326.8516" y2="-12.6912">
	<stop  offset="0" style="stop-color:#2F4998"/>
	<stop  offset="1.740253e-02" style="stop-color:#324E9C"/>
	<stop  offset="0.1362" style="stop-color:#446EB4"/>
	<stop  offset="0.2595" style="stop-color:#5187C6"/>
	<stop  offset="0.3878" style="stop-color:#5B99D4"/>
	<stop  offset="0.5241" style="stop-color:#61A4DB"/>
	<stop  offset="0.6822" style="stop-color:#63A7DE"/>
	<stop  offset="0.7516" style="stop-color:#61A3DB"/>
	<stop  offset="0.8161" style="stop-color:#5B98D3"/>
	<stop  offset="0.8786" style="stop-color:#5085C5"/>
	<stop  offset="0.9395" style="stop-color:#426BB1"/>
	<stop  offset="0.9994" style="stop-color:#2F4998"/>
	<stop  offset="1" style="stop-color:#2F4998"/>
</linearGradient>
<path fill="url(#SVGID_5_)" d="M319.9,0h-25c-7.3,0-13.7,4.2-16.9,10.4c3.2,6,9.5,10.1,16.7,10.1c0.1,0,0.1,0,0.2,0h0
	c-0.8,0-1.4-0.6-1.4-1.4c0-0.8,0.6-1.4,1.4-1.4h25c4.8,0,8.7-3.9,8.7-8.8S324.8,0,319.9,0z"/>
<linearGradient id="SVGID_6_" gradientUnits="userSpaceOnUse" x1="320.1056" y1="23.1496" x2="264.2073" y2="79.0479">
	<stop  offset="0" style="stop-color:#2F4998"/>
	<stop  offset="1.923064e-02" style="stop-color:#34529E"/>
	<stop  offset="9.974135e-02" style="stop-color:#4570B5"/>
	<stop  offset="0.1841" style="stop-color:#5288C7"/>
	<stop  offset="0.273" style="stop-color:#5C9AD4"/>
	<stop  offset="0.3694" style="stop-color:#61A4DC"/>
	<stop  offset="0.4872" style="stop-color:#63A7DE"/>
	<stop  offset="0.5757" style="stop-color:#5FA0D9"/>
	<stop  offset="0.7054" style="stop-color:#548CCA"/>
	<stop  offset="0.8597" style="stop-color:#436CB2"/>
	<stop  offset="1" style="stop-color:#2F4998"/>
</linearGradient>
<path fill="url(#SVGID_6_)" d="M255.6,58.5h71.6c7.3,0,13.7-4.2,16.8-10.4c-3.2-6-9.4-10.1-16.6-10.1c-0.1,0-0.1,0-0.2,0h0
	c0.8,0,1.4,0.6,1.4,1.4c0,0.8-0.6,1.4-1.4,1.4h-71.6c-4.8,0-8.7,3.9-8.7,8.8S250.8,58.5,255.6,58.5z"/>
<linearGradient id="SVGID_7_" gradientUnits="userSpaceOnUse" x1="132.2472" y1="48.1171" x2="176.7384" y2="3.6259">
	<stop  offset="0" style="stop-color:#2F4998"/>
	<stop  offset="4.078011e-02" style="stop-color:#3655A1"/>
	<stop  offset="0.1784" style="stop-color:#4978BB"/>
	<stop  offset="0.3077" style="stop-color:#5792CE"/>
	<stop  offset="0.4243" style="stop-color:#60A2DA"/>
	<stop  offset="0.5172" style="stop-color:#63A7DE"/>
	<stop  offset="0.606" style="stop-color:#60A2DA"/>
	<stop  offset="0.7122" style="stop-color:#5893CF"/>
	<stop  offset="0.8272" style="stop-color:#4B7BBD"/>
	<stop  offset="0.9478" style="stop-color:#385AA5"/>
	<stop  offset="1" style="stop-color:#2F4998"/>
</linearGradient>
<path fill="url(#SVGID_7_)" d="M180.2,8.8c0-4.9-3.9-8.8-8.7-8.8c-2.4,0-4.6,1-6.2,2.6l0,0l-40.4,40.7l0,0c-1.7,1.6-2.8,3.9-2.8,6.4
	c0,4.9,3.9,8.8,8.7,8.8c2.4,0,4.5-1,6.1-2.5l0,0l0,0c0,0,0,0,0.1-0.1l40.5-40.8C179.1,13.5,180.2,11.3,180.2,8.8z"/>
<path fill="#70C1F0" d="M264.4,49.7L264.4,49.7C264.4,49.7,264.4,49.7,264.4,49.7L264.4,49.7l0-40.6h0c0.1-2.3-0.8-4.7-2.5-6.5
	c-1.7-1.7-3.9-2.6-6.2-2.6v0h-17.5c4.8,0,8.7,3.9,8.7,8.8h0c0,0,0,0,0,0.1l0,40.7c0,2.3,0.8,4.6,2.6,6.4c1.7,1.7,3.9,2.6,6.2,2.6
	l0,0h17.5C268.3,58.5,264.4,54.6,264.4,49.7z"/>
<path fill="#70C1F0" d="M235.5,60.9L235.5,60.9L177.7,2.6l0,0C176.1,1,173.9,0,171.5,0c-2.4,0-4.6,1-6.2,2.6l0,0L152.9,15
	c3.4-3.4,8.9-3.4,12.3,0l0,0c0,0,0.1,0.1,0.1,0.1l58,58.3c0,0,0,0,0.1,0.1l0,0l0,0c1.6,1.6,3.7,2.5,6.1,2.5c4.8,0,8.7-3.9,8.7-8.8
	C238.3,64.7,237.2,62.5,235.5,60.9z"/>
<path fill="#70C1F0" d="M149.3,43.5c-3.4,3.4-8.8,3.4-12.2,0.1c-0.1-0.1-0.2-0.2-0.3-0.3l0,0L96.3,2.6l0,0C94.7,1,92.5,0,90.1,0
	c-2.4,0-4.6,1-6.1,2.5l0,0l0,0c0,0,0,0,0,0L71.6,15c3.3-3.3,8.5-3.4,11.9-0.4c0.2,0.2,0.3,0.4,0.5,0.5l40.5,40.8c0,0,0,0,0.1,0.1
	l0,0l0,0c1.6,1.6,3.7,2.5,6.1,2.5c2.4,0,4.6-1,6.2-2.6l0,0L149.3,43.5z"/>
</svg>
