<?xml version="1.0" encoding="utf-8"?>
<!-- Generator: Adobe Illustrator 21.0.1, SVG Export Plug-In . SVG Version: 6.00 Build 0)  -->
<svg version="1.1" id="Слой_1" xmlns="http://www.w3.org/2000/svg" xmlns:xlink="http://www.w3.org/1999/xlink" x="0px" y="0px"
	 width="280.3px" height="283.4px" viewBox="0 0 280.3 283.4" enable-background="new 0 0 280.3 283.4" xml:space="preserve">
<g>
	<g>
		<g>
			<path fill="#70C1F0" d="M191.2,47.2l-68.4,19.7c-1.4,0.4-2.9-0.4-3.3-1.9l-11.9-41.8c-0.4-1.4,0.4-3,1.9-3.4l68.4-19.7
				c1.4-0.4,2.9,0.4,3.3,1.9l11.9,41.8C193.5,45.2,192.6,46.7,191.2,47.2z"/>
			<g>
				<g>
					<defs>
						<path id="SVGID_1_" d="M191.2,47.2l-68.4,19.7c-1.4,0.4-2.9-0.4-3.3-1.9l-11.9-41.8c-0.4-1.4,0.4-3,1.9-3.4l68.4-19.7
							c1.4-0.4,2.9,0.4,3.3,1.9l11.9,41.8C193.5,45.2,192.6,46.7,191.2,47.2z"/>
					</defs>
					<clipPath id="SVGID_2_">
						<use xlink:href="#SVGID_1_"  overflow="visible"/>
					</clipPath>
					<polygon clip-path="url(#SVGID_2_)" fill="#909294" points="185.8,6.4 101.2,30.8 97,16.2 181.7,-8.2 					"/>
				</g>
				<path fill="#FFFFFF" d="M141.4,55.9l-15.2,4.4c-0.6,0.2-1.3-0.2-1.5-0.8l-8-28c-0.2-0.6,0.2-1.3,0.8-1.5l15.2-4.4
					c0.6-0.2,1.3,0.2,1.5,0.8l8,28C142.4,55.1,142,55.8,141.4,55.9z"/>
				<path fill="#FFFFFF" d="M178.7,23.3l-36.7,10.6c-0.6,0.2-1.3-0.2-1.5-0.8l-2.1-7.3c-0.2-0.6,0.2-1.3,0.8-1.5L176,13.6
					c0.6-0.2,1.3,0.2,1.5,0.8l2.1,7.3C179.8,22.5,179.4,23.1,178.7,23.3z"/>
				<path fill="#FFFFFF" d="M161.2,34.2l-17.4,5c-0.6,0.2-1.2-0.2-1.3-0.7l-0.1-0.3c-0.2-0.6,0.2-1.2,0.7-1.3l17.4-5
					c0.6-0.2,1.2,0.2,1.3,0.7l0.1,0.3C162.1,33.5,161.8,34.1,161.2,34.2z"/>
				<path fill="#FFFFFF" d="M182.4,28.1l-17.4,5c-0.6,0.2-1.2-0.2-1.3-0.7l-0.1-0.3c-0.2-0.6,0.2-1.2,0.7-1.3l17.4-5
					c0.6-0.2,1.2,0.2,1.3,0.7l0.1,0.3C183.3,27.3,183,28,182.4,28.1z"/>
				<path fill="#FFFFFF" d="M177,35.8l-10.5,3c-0.6,0.2-1.2-0.2-1.3-0.7l-0.1-0.3c-0.2-0.6,0.2-1.2,0.7-1.3l10.5-3
					c0.6-0.2,1.2,0.2,1.3,0.7l0.1,0.3C177.9,35,177.6,35.6,177,35.8z"/>
				<path fill="#FFFFFF" d="M175,42.5l-6.8,2c-0.6,0.2-1.2-0.2-1.3-0.7l-0.1-0.3c-0.2-0.6,0.2-1.2,0.7-1.3l6.8-2
					c0.6-0.2,1.2,0.2,1.3,0.7l0.1,0.3C175.9,41.7,175.6,42.3,175,42.5z"/>
				<path fill="#FFFFFF" d="M162.8,39.9l-17.4,5c-0.6,0.2-1.2-0.2-1.3-0.7l-0.1-0.3c-0.2-0.6,0.2-1.2,0.7-1.3l17.4-5
					c0.6-0.2,1.2,0.2,1.3,0.7l0.1,0.3C163.7,39.1,163.4,39.8,162.8,39.9z"/>
				<path fill="#FFFFFF" d="M164.4,45.6l-17.4,5c-0.6,0.2-1.2-0.2-1.3-0.7l-0.1-0.3c-0.2-0.6,0.2-1.2,0.7-1.3l17.4-5
					c0.6-0.2,1.2,0.2,1.3,0.7l0.1,0.3C165.3,44.8,165,45.4,164.4,45.6z"/>
			</g>
		</g>
		<g>
			<defs>
				<path id="SVGID_3_" d="M191.2,47.2l-68.4,19.7c-1.4,0.4-2.9-0.4-3.3-1.9l-11.9-41.8c-0.4-1.4,0.4-3,1.9-3.4l68.4-19.7
					c1.4-0.4,2.9,0.4,3.3,1.9l11.9,41.8C193.5,45.2,192.6,46.7,191.2,47.2z"/>
			</defs>
			<clipPath id="SVGID_4_">
				<use xlink:href="#SVGID_3_"  overflow="visible"/>
			</clipPath>
			<path opacity="0.29" clip-path="url(#SVGID_4_)" fill="#2F4998" d="M192,101.1c0,0-24.3-10-30.8-16.8s-10.9-13.8-7.4-22.3
				s9-21.3,6.5-29.4c-3.2-10.4-4.8-11.3-5.6-9.8c-0.7,1.5,0.6,5.1,0.7,5.8c0.2,1.8-1.8,2.6-3.2,2.8c-1.5,0.2-2,0.9-1.8,2.1
				c0.2,1.2,2.5,6.8-1.6,14.7S130,65.5,133.6,82.2s32,33.3,32,33.3L192,101.1z"/>
		</g>
	</g>
	<g>
		<polygon fill="#F0CA80" points="57.6,170.4 46.7,178.3 38.7,168.7 51.3,157.8 		"/>
		<polygon fill="#DFB271" points="93.4,248.7 95.7,260.8 108.9,261.3 108.6,239.8 		"/>
		<path fill="#1A2A65" d="M128.5,151c0,0-37.4,28-40.9,34.2c-3.5,6.2-3.7,12.9-2,25c1.8,12.1,8.2,42.1,8.2,42.1l18-0.1l4.5-58.5
			l53.2-19.6L128.5,151z"/>
		<path fill="#DFB271" d="M227.5,70.3c0,0-26.1,3.2-35.1,0.5c-9-2.7-16.2-6.7-17.3-15.9c-1.1-9.1-2.4-23-8.5-28.9
			c-7.8-7.5-9.7-7.5-9.6-5.9c0.1,1.6,3,4.2,3.4,4.7c1,1.5-0.3,3.1-1.4,4.1c-1.2,0.9-1.3,1.8-0.6,2.7s5.5,4.7,5.7,13.6
			c0.2,8.9-8,24.4,3.3,37.3c11.3,12.8,44.1,13.4,44.1,13.4L227.5,70.3z"/>
		<g>
			<defs>
				<path id="SVGID_5_" d="M227.5,70.3c0,0-26.1,3.2-35.1,0.5c-9-2.7-16.2-6.7-17.3-15.9c-1.1-9.1-2.4-23-8.5-28.9
					c-7.8-7.5-9.7-7.5-9.6-5.9c0.1,1.6,3,4.2,3.4,4.7c1,1.5-0.3,3.1-1.4,4.1c-1.2,0.9-1.3,1.8-0.6,2.7s5.5,4.7,5.7,13.6
					c0.2,8.9-8,24.4,3.3,37.3c11.3,12.8,44.1,13.4,44.1,13.4L227.5,70.3z"/>
			</defs>
			<clipPath id="SVGID_6_">
				<use xlink:href="#SVGID_5_"  overflow="visible"/>
			</clipPath>
			<path clip-path="url(#SVGID_6_)" fill="#C06E29" d="M194.6,67.5l-7.7,27.7c0,0,28.3,2.9,31.9,2.3c3.6-0.6,17-28.9,17-28.9
				L194.6,67.5z"/>
		</g>
		<path fill="#F0CA80" d="M254.4,31.8c0,0-3.3,1.8-5.9,5c-2.7,3.2-4,6-6.1,6.7c-2.1,0.7-4.2,0.7-5,2c-0.9,1.2,2.8,4.7,2.7,6
			c-0.1,1.3-3.7,6-2.8,7.8c0.9,1.9-1.6,5.5-1.6,5.5l-17.2,16.8l30.6-0.7l8.1-12.7c0,0,12.7-6.6,15.8-11.6s-3.6-15.6-8.2-19.1
			C260,33.9,254.4,31.8,254.4,31.8z"/>
		
			<linearGradient id="SVGID_7_" gradientUnits="userSpaceOnUse" x1="58.944" y1="76.4522" x2="83.8708" y2="108.0506" gradientTransform="matrix(0.8188 0.5741 -0.5741 0.8188 246.1899 -78.8624)">
			<stop  offset="0" style="stop-color:#63A7DE"/>
			<stop  offset="0.1727" style="stop-color:#5FA0D9"/>
			<stop  offset="0.4256" style="stop-color:#548CCA"/>
			<stop  offset="0.7264" style="stop-color:#436CB2"/>
			<stop  offset="1" style="stop-color:#2F4998"/>
		</linearGradient>
		<path fill="url(#SVGID_7_)" d="M280.2,46.3c-1-7.7-7.9-8-11.3-11.8c-3.4-3.8-4.9-9.7-7.8-11.6c-2.4-1.6-8.3-0.9-11.4,2.6
			s-1.1,8,1.4,9.1c2.5,1.1,9.1,4.4,10.8,6.2c1.6,1.8,3.4,4.6,1.2,6.9c-1.7,1.8-4.6,3.7-5.5,5.7c-1.1,1.6-3,4.1-6,5.1
			c-3.4,1.1-8.4,2.9-9.1,0.7c-0.7-2.2-0.8-7.2-2-8.5c-1.2-1.3-2.3-2.1-3.9-0.6c-1.6,1.5-2.4,1.2-5.6,2.1c-3.1,0.8-6.7,3.6-6.3,6.9
			c0.4,3.3,7.7,5.6,13.7,6.5c5.9,0.8,13.4-2,16.6-4.6c2.2-1.8,6.4-6.6,8.8-9.4c1.4-1,3.1-1.7,4.4-1.3c2.3,0.6,3,4.9,0.7,7.8
			c-5,6.3-7.3,0.8-12.9,8.1c-1.9,2.4-1.6,7.9,3,8.3c4.6,0.4,7.3-7.3,11.2-10.8C274,60,281.2,54,280.2,46.3z"/>
		<path fill="#DD902F" d="M260.6,100.6c0,0-1.2-5.1-4.4-11.3c-3.2-6.1-5.7-10.5-5.7-10.5s-7,1.8-14.7,1.5
			c-3.7-0.1-13.5-2.2-13.5-2.2l8.3-8.3c0,0-8.6,0.4-12.7,1.5c-4.1,1-11.3,14.8-17.5,23.3c-3.4,4.7-24,30.1-27.9,34.2
			c-3.9,4-10.1,9.6-10.1,9.6l42.5,21.3c0,0,9.7-6.5,21.2-17.5C237.8,131.3,260.6,100.6,260.6,100.6z"/>
		<g>
			<defs>
				<path id="SVGID_8_" d="M260.6,100.6c0,0-1.2-5.1-4.4-11.3c-3.2-6.1-5.7-10.5-5.7-10.5s-7,1.8-14.7,1.5
					c-3.7-0.1-13.5-2.2-13.5-2.2l8.3-8.3c0,0-8.6,0.4-12.7,1.5c-4.1,1-11.3,14.8-17.5,23.3c-3.4,4.7-24,30.1-27.9,34.2
					c-3.9,4-10.1,9.6-10.1,9.6l42.5,21.3c0,0,9.7-6.5,21.2-17.5C237.8,131.3,260.6,100.6,260.6,100.6z"/>
			</defs>
			<clipPath id="SVGID_9_">
				<use xlink:href="#SVGID_8_"  overflow="visible"/>
			</clipPath>
			
				<linearGradient id="SVGID_10_" gradientUnits="userSpaceOnUse" x1="64.3766" y1="232.9925" x2="101.89" y2="182.5199" gradientTransform="matrix(0.8188 0.5741 -0.5741 0.8188 246.1899 -78.8624)">
				<stop  offset="0" style="stop-color:#DD902F"/>
				<stop  offset="0.3442" style="stop-color:#D7892E"/>
				<stop  offset="0.8473" style="stop-color:#C6752A"/>
				<stop  offset="1" style="stop-color:#C06E29"/>
			</linearGradient>
			<path clip-path="url(#SVGID_9_)" fill="url(#SVGID_10_)" d="M241.7,94.8l-77.1,38.9l-6,5l51.3,24c0,0,31.3-33.8,34.9-37.7
				C248.5,121,241.7,94.8,241.7,94.8z"/>
		</g>
		<path fill="#F0CA80" d="M240.8,95.8c-2.7,2.9-5.2,9-5.5,14.9s1.6,14.7-5.3,34.9s-16.4,31.7-20.5,35.9s-8.4,10.2-9.1,11.9
			c-0.8,1.7,0.1,0.6,2.6-0.7c2.4-1.3,0.9,1.5,0.3,4.5c-0.6,3,0.6,9.4,3.1,12.4c2.5,3,0.9,0.1,2-0.9s0.5,0.9,1.6,1.8
			c1.1,0.9,0.5-4.5,1.1-4.6c0.6-0.1,2.1,4,2.9,2c0.8-1.9-1.3-7.2,2.6-16.1c4-8.9,25.4-24.1,35.3-48.4c10.1-24.7,12.1-41.2,6.3-48.5
			C252.4,87.7,243.7,92.6,240.8,95.8z"/>
		<g>
			<defs>
				<path id="SVGID_11_" d="M240.8,95.8c-2.7,2.9-5.2,9-5.5,14.9s1.6,14.7-5.3,34.9s-16.4,31.7-20.5,35.9s-8.4,10.2-9.1,11.9
					c-0.8,1.7,0.1,0.6,2.6-0.7c2.4-1.3,0.9,1.5,0.3,4.5c-0.6,3,0.6,9.4,3.1,12.4c2.5,3,0.9,0.1,2-0.9s0.5,0.9,1.6,1.8
					c1.1,0.9,0.5-4.5,1.1-4.6c0.6-0.1,2.1,4,2.9,2c0.8-1.9-1.3-7.2,2.6-16.1c4-8.9,25.4-24.1,35.3-48.4
					c10.1-24.7,12.1-41.2,6.3-48.5C252.4,87.7,243.7,92.6,240.8,95.8z"/>
			</defs>
			<clipPath id="SVGID_12_">
				<use xlink:href="#SVGID_11_"  overflow="visible"/>
			</clipPath>
			<path clip-path="url(#SVGID_12_)" fill="#DD902F" d="M232.9,122.6c0.5,0,27.5,4.4,27.5,4.4s9.4-19.3,2.1-29.2
				c-7.2-9.9-18-10.6-23.2-4.9S232.9,122.6,232.9,122.6z"/>
		</g>
		
			<linearGradient id="SVGID_13_" gradientUnits="userSpaceOnUse" x1="-58.1423" y1="300.2511" x2="58.6124" y2="238.2976" gradientTransform="matrix(0.8188 0.5741 -0.5741 0.8188 246.1899 -78.8624)">
			<stop  offset="0" style="stop-color:#63A7DE"/>
			<stop  offset="0.1727" style="stop-color:#5FA0D9"/>
			<stop  offset="0.4256" style="stop-color:#548CCA"/>
			<stop  offset="0.7264" style="stop-color:#436CB2"/>
			<stop  offset="1" style="stop-color:#2F4998"/>
		</linearGradient>
		<path fill="url(#SVGID_13_)" d="M207.8,157.7c0,0-95.3-47.3-101.2-48c-6-0.7-14.7,1.6-26.8,12.8S45,159.7,45,159.7l12.7,11.7
			l47.9-30c0,0,42.7,36.3,61.2,36.6c8.9,0.2,16.9-2.6,23.1-7C204.6,160.5,207.8,157.7,207.8,157.7z"/>
		<path fill="#DD902F" d="M42.1,163.6l9,12.6L38,186.4l-38-28c0,0,2.9-3.1,4.5-4c3.9-2.1,8-0.1,15.4,4c7.3,4.2,13.8,7.6,16.6,7.1
			S42.1,163.6,42.1,163.6z"/>
		<path fill="#DD902F" d="M93.7,257.9l16.5,2.9l0.9,14.2l-51.8,8.4c0,0-2.1-4,2-9c4.1-5,19-7.6,25.1-10.9
			C92.5,260.2,93.7,257.9,93.7,257.9z"/>
		<g>
			<defs>
				<path id="SVGID_14_" d="M42.1,163.6l9,12.6L38,186.4l-38-28c0,0,2.9-3.1,4.5-4c3.9-2.1,8-0.1,15.4,4c7.3,4.2,13.8,7.6,16.6,7.1
					S42.1,163.6,42.1,163.6z"/>
			</defs>
			<clipPath id="SVGID_15_">
				<use xlink:href="#SVGID_14_"  overflow="visible"/>
			</clipPath>
			<polygon clip-path="url(#SVGID_15_)" fill="#2F4998" points="2.1,154.5 43.3,183.7 37,188.8 -2.7,157.8 			"/>
			<path clip-path="url(#SVGID_15_)" fill="#2F4998" d="M16.3,154.8c0,0-0.7,4.3-1.7,6.1s-3.6,6.1-3.6,6.1l-13.9-9.4l10.5-7.9
				L16.3,154.8z"/>
		</g>
		<g>
			<defs>
				<path id="SVGID_16_" d="M93.7,257.9l16.5,2.9l0.9,14.2l-51.8,8.4c0,0-2.1-4,2-9c4.1-5,19-7.6,25.1-10.9
					C92.5,260.2,93.7,257.9,93.7,257.9z"/>
			</defs>
			<clipPath id="SVGID_17_">
				<use xlink:href="#SVGID_16_"  overflow="visible"/>
			</clipPath>
			<polygon clip-path="url(#SVGID_17_)" fill="#2F4998" points="58.4,278.7 112.1,268.9 112.7,278.1 57.9,285.4 			"/>
			<path clip-path="url(#SVGID_17_)" fill="#2F4998" d="M66.6,268.3c0,0,8,7.7,9.1,9.4s1.7,5.3,1.7,5.3L56.8,285
				c0,0-1.1-6.3,1.5-10.4C61,270.5,66.6,268.3,66.6,268.3z"/>
		</g>
	</g>
</g>
</svg>
